Patient4_TMGait_0pt8_01_right_48_EMG.mot
version=1
nRows=39
nColumns=33
inDegrees=no
endheader
time	1LAddLong	2LGlutMax	3LGlutMed	4LIliopsoas	5LSemiMemb	6LBicFemLong	7LRecFem	8LVastMed	9LVastLat	10LGasMed	11LTibAnt	12lTibPost	13LPeroneusLong	14LSol	15LExtDigLong	16LFlexDigLong	17RAddLong	18RGlutMax	19RGlutMed	20RIliopsoas	21RSemiMemb	22RBicFemLong	23RRecFem	24RVastMed	25RVastLat	26RGasMed	27RTibAnt	28RTibPost	29RPeroneusLong	30RSol	31RExtDigLong	32RFlexDigLong
55.223	-0.009003	-0.001068	-0.012817	0.019226	0.013733	0.010681	0.28641	0.006104	0.012207	0.045929	-0.004425	0.040131	-0.046844	0.11124	0.008698	0.001831	-0.00885	-0.096436	-0.14221	0.098877	0.012817	0.014496	0.049286	-0.075684	-0.02121	0.025024	0.090332	-0.001068	-0.00412	0.03479	-0.002441	0.056305
55.224	0.003662	0.043335	0.064545	0.002136	0.012817	-0.019989	0.27435	0.005035	0.071259	-0.003357	-0.063171	0.034637	0.2124	0.003815	-0.041656	0.000153	0.002747	-0.1001	-0.12924	0.073547	0.003204	0.001068	0.077972	-0.1355	-0.035095	0.033722	-0.13016	0.000916	0.10132	-0.10056	0.002441	0.059509
55.225	-0.008087	0.052948	0.13428	-0.00885	-0.027924	-0.013428	0.31235	0.003204	0.040283	-0.045013	-0.084229	0.025482	-0.11887	-0.06073	-0.053406	-0.008392	0.006561	-0.092773	-0.19623	0.066223	0.001068	-0.058594	0.08255	-0.13153	-0.032196	0.032806	-0.35614	-0.003967	-0.12405	-0.084229	-0.000458	0.06546
55.226	-0.012512	0.053558	0.058441	0.014496	-0.043335	-0.048981	0.33875	0.005951	0.031128	-0.066833	-0.049133	0.00473	-0.17212	0.010529	-0.042114	-0.046234	0.007324	-0.11353	-0.11322	0.067749	0.009766	-0.050507	0.019684	-0.10574	-0.035248	0.017853	-0.48355	-0.005341	-0.33615	-0.034027	0.002136	0.059052
55.227	-0.013733	0.046387	0.067596	0.000763	0.007935	-0.097351	0.31525	0.003052	0.014343	-0.039673	-0.021973	-0.000458	-0.055847	-0.060883	-0.018005	-0.046082	0.009155	-0.15152	-0.15793	0.014801	0.003662	-0.050201	0.013123	-0.095978	-0.029297	0.001373	-0.15961	-0.000458	-0.10651	-0.007172	0.00061	0.058136
55.228	-0.018158	0.039978	0.11505	-0.0177	0.076904	-0.067444	0.2803	0.019531	-0.019989	-0.000458	-0.019684	0.00412	0.002747	-0.16098	-0.000305	0.07843	0.015564	-0.087585	-0.028687	-0.096283	-0.004272	-0.047913	-0.069122	-0.089874	-0.012054	-0.011902	0.11383	0	0.021973	0.070343	0.000763	0.04715
55.229	-0.021667	0.046692	0.009155	0.002899	0.085449	0.000153	0.2388	0.018311	-0.036316	0.010681	0.03006	0.08316	0.15884	-0.090332	0.032501	0.10452	0.010834	-0.05249	-0.15656	-0.28839	0.005798	-0.030518	-0.12314	-0.097198	-0.010376	-0.013275	0.17975	-0.007477	0.24094	0.066986	-0.003204	0.041962
55.23	-0.010376	0.050507	0.03952	0.003204	0.063934	0.14389	0.24048	0.017395	-0.015259	0.053711	0.063324	-0.003815	-0.004578	-0.026703	0.045166	0.003662	0.019379	-0.054016	-0.24612	-0.28976	0.007324	-0.009613	-0.11078	-0.098877	-0.02182	-0.013123	0.14236	-0.007935	0.12955	0.045319	0	0.033112
55.231	0.002441	0.13382	0.086365	0.014801	0.066833	0.14038	0.14847	0.009308	0.009155	0.10315	0.081787	-0.11566	0.006561	0.076294	0.055389	-0.021667	0.015106	-0.02533	-0.2803	0.008545	0.025635	-0.014343	-0.15411	-0.059509	-0.011902	-0.015717	0.049438	-0.003052	0.21881	0.034332	-0.002747	0.037079
55.232	0.006866	0.098877	0.061188	0.005646	0.097504	0.064392	0.11368	-0.010986	-0.006409	0.10346	0.033417	-0.042419	0.016937	0.019226	0.03006	-0.029449	0.035553	-0.048523	-0.24262	0.15595	0.035095	-0.007019	-0.089417	-0.059814	0.005188	-0.016174	-0.18616	-0.005035	0.25909	0.007477	-0.002441	0.03006
55.233	0.001068	0.058289	0.090027	-0.007324	0.008392	0.045013	0.15396	-0.017853	0.048218	-0.02533	-0.076447	-0.048065	0.12634	-0.006561	-0.019379	-0.014954	0.017548	-0.13062	0.022125	0.040894	-0.00061	-0.011292	-0.04715	0.02655	0.021515	-0.019379	-0.13184	-0.005493	0.24307	0.024109	-0.002136	0.025024
55.234	0.002594	0.058899	0.2417	0.005951	-0.049591	0.004883	0.1033	-0.022736	0.036774	-0.02533	-0.053864	-0.046997	0.15045	0.07431	0.033722	0.01709	-0.011749	-0.11231	0.24765	-0.24139	-0.066833	-0.014954	-0.052643	-0.019989	-0.004578	-0.019531	-0.026855	-0.002441	0.31586	0.020752	-0.002136	0.02594
55.235	0.005188	0.074005	0.15137	0.015869	-0.050049	-0.007019	0.11917	-0.01709	-0.019226	0.034943	-0.010529	-0.039673	-0.20981	0.11581	0.073547	0.005646	-0.00824	-0.10346	0.13138	-0.26398	-0.070953	0.014648	0.03891	-0.09079	-0.016937	-0.011749	0.084534	0.000153	0.14053	0.017853	-0.000153	0.009308
55.236	0.001831	0.1004	0.088043	0.011902	0.081787	-0.046234	0.10071	-0.004883	-0.038452	0.030823	-0.006866	-0.056305	-0.1709	0.16113	0.041046	0.029297	-0.008545	-0.11673	-0.25223	-0.18036	-0.12207	0.023346	0.044708	-0.097198	-0.015106	-0.015106	0.12817	-0.002594	0.070038	-0.019226	-0.002747	0.008698
55.237	-0.003662	0.11841	0.13702	-0.008392	0.15564	-0.044098	0.17777	0.001984	-0.018311	-0.005798	0.00473	-0.078888	-0.20615	0.29175	-0.029144	0.03891	0.012207	-0.13351	-0.82108	-0.13351	-0.19486	-0.02594	0.038452	-0.10803	-0.018005	-0.013428	0.11566	-0.001221	0.16312	-0.014648	-0.007324	0.010529
55.238	-0.003204	0.10895	0.12558	-0.02182	0.11643	0.012512	0.27206	-0.004272	0.01236	-0.049133	0.012817	-0.093842	-0.53345	0.28534	-0.029297	0.032806	0.025482	-0.12421	-0.7074	0.16968	-0.32684	-0.064545	0.000153	-0.11429	-0.024414	-0.015564	0.094299	-0.002899	0.17792	-0.045776	-0.004272	0.004425
55.239	-0.003204	0.14542	0.15976	0.035706	0.065613	0.009918	0.30884	-0.009308	0.018463	-0.11154	-0.035553	-0.088654	0.093842	0.35339	-0.058289	0.021667	0.014801	-0.10147	-0.44922	0.39551	-0.27359	-0.074463	-0.013123	-0.088348	-0.018311	-0.014801	0.083466	-0.004578	0.062256	-0.072327	-0.003662	0.002441
55.24	-0.002136	0.13336	-0.001984	0.018463	0.038757	0.03479	0.23163	0.003357	-0.078888	-0.112	-0.065613	-0.078583	0.31494	0.12726	-0.080414	0.022888	0.002899	-0.11459	-0.34592	0.33341	0.24963	-0.041656	-0.042267	0.004578	0.006256	-0.018768	0.073395	-0.000153	0.024414	-0.076599	-0.008392	-0.007172
55.241	-0.005646	0.13779	-0.09079	-0.014343	0.037537	0.006866	0.085602	0.009155	-0.054016	-0.10178	-0.045929	-0.089874	0.18478	-0.05249	0.050812	0.023651	0.014954	-0.15778	-0.18219	0.39703	0.37109	-0.031586	-0.04364	-0.016479	0.004272	-0.02533	0.073395	-0.002594	-0.039215	-0.055389	-0.002899	-0.00473
55.242	-0.001068	0.14053	-0.088501	-0.005646	0.053406	-0.032806	0.12833	0.04425	-0.047302	-0.020905	-0.001373	-0.071564	0.17929	-0.3125	0.052032	0.006104	-0.016479	-0.15961	-0.26032	0.38635	0.13626	0.013885	-0.021057	-0.049133	0.014648	-0.025787	0.091705	-0.005951	-0.40924	-0.013885	-0.00412	-0.010681
55.243	-0.004578	0.13107	-0.081635	0.004272	0.020905	-0.016174	0.18982	0.018005	-0.045013	0.12894	-0.007935	-0.093536	-0.079193	-0.19684	-0.007629	-0.002747	-0.041809	-0.14618	-0.4097	0.22492	0.018921	0.052185	-0.039825	-0.028076	0.010223	-0.006409	0.027161	-0.005035	-0.38406	-0.046997	-0.001831	-0.007782
55.244	-0.006104	0.11322	0.007477	-0.009003	0.022888	-0.005646	0.17899	-0.018768	-0.063477	0.26642	0.006409	-0.09201	-0.086975	-0.007935	-0.02121	-0.020447	-0.015869	-0.10117	-0.37598	0.12405	0.075531	0.007782	-0.002136	-0.029449	-0.00061	0.018005	0.072021	-0.006409	-0.17838	-0.09079	-0.002747	0.001068
55.245	-0.008545	0.18448	0.070343	-0.015259	0.030518	0.005341	0.2182	0.012817	-0.12009	0.35629	0.010834	-0.067902	-0.03418	0.12344	0.004425	-0.02121	0.049286	-0.046692	-0.31708	-0.013733	0.071716	-0.005798	-0.03067	-0.070343	-0.016479	0.003357	0.12848	-0.001373	-0.26947	-0.059662	0.000916	0.00473
55.246	-0.007477	0.19196	0.10437	-0.014191	0.027161	-0.001831	0.19012	0.004425	-0.12024	0.3714	0.017548	-0.050507	0.19562	0.080719	-0.044861	0.001068	0.093994	-0.00885	-0.18662	-0.020142	-0.077972	0.1387	-0.023499	-0.09201	-0.011139	-0.016174	0.18662	-0.002289	-0.045929	-0.050201	-0.003204	0.00061
55.247	-0.007629	0.18921	0.080719	-0.033722	0.018921	0.012512	0.15411	0.010834	-0.060425	0.22186	0.032196	-0.021667	0.23377	-0.19455	-0.057068	-0.020905	0.078583	-0.019684	-0.40573	-0.016632	-0.13901	0.090027	-0.033875	-0.04715	0.005798	-0.027313	0.097656	-0.006409	0.20767	-0.00885	0.001526	0.002594
55.248	-0.001678	0.18921	0.077209	-0.004883	0.052338	0.009613	0.077667	0.009155	-0.048523	0.00351	0.010529	0.051117	0.031281	-0.43991	-0.072021	-0.01709	0.075226	-0.007935	-0.46341	-0.032196	-0.19165	0.054626	-0.026245	-0.072784	0.006561	-0.033264	-0.061646	-0.001831	0.15717	0.013123	-0.003052	0.012512
55.249	-0.011902	0.20157	0.01236	-0.004425	0.025787	0.005188	-0.022736	0.018158	-0.10346	-0.2153	0.011597	-0.15808	-0.16892	-0.21637	0.093842	-0.004425	0.054626	-0.000763	-0.41763	-0.045624	-0.069427	0.011902	-0.013275	-0.061951	0.005798	0.000305	0.030823	-0.005188	-0.13687	-0.019989	0.000153	0.006409
55.25	-0.008087	0.15289	-0.005188	0.006714	0.030975	0.004425	0.000458	0.000305	-0.089111	-0.51239	0.01297	-0.094757	-0.34347	-0.016327	0.088501	-0.001221	-0.00885	-0.056458	-0.336	-0.032806	-0.12177	0.020294	-0.074005	-0.002289	0.018158	-0.006561	0.21408	-0.005798	-0.19913	0.041199	0.001068	0.015106
55.251	-0.005646	0.14343	0.059814	-0.001678	0.020599	-0.011444	0.0737	-0.005646	-0.092773	-0.46097	0.008698	-0.037537	-0.056458	0.10101	-0.02243	0.039978	0.022736	-0.006561	-0.54092	-0.081177	-0.062561	0.023193	-0.046234	-0.035858	0.005341	-0.02655	0.33249	-0.000916	-0.19714	0.075378	-0.001221	0.016479
55.252	-0.006866	0.14297	0.033569	0.006256	0.027771	0.002594	0.20325	-0.007477	-0.080872	-0.34637	0.020142	-0.037384	-0.12177	0.13809	-0.019836	0.043182	0.06134	0.010376	-0.86456	-0.080109	0.032196	-0.005341	-0.031281	0.004883	-0.002289	-0.025635	0.41779	0.007019	-0.19363	-0.041504	-0.001373	0.003967
55.253	-0.008087	0.088654	0.012665	0.013428	0.036621	-0.006866	0.26886	-0.005798	-0.096436	-0.13596	0.016174	-0.021973	-0.19089	0.29602	0.019989	0.007629	0.051422	-0.005035	-0.96634	0.003357	0.045471	-0.043945	-0.030975	0.006866	0.012054	-0.018311	0.2269	-0.002747	0.35797	-0.099945	-0.002899	0.012817
55.254	-0.00824	0.062714	0.032196	0.01709	0.03006	0.00351	0.30518	0.002594	-0.14557	0.20737	0.003052	-0.01236	-0.30716	0.14984	0.025177	0.016785	0.035095	0.028076	-0.70328	0.057526	-0.054169	-0.083923	-0.006256	-0.081635	-0.004272	-0.019073	0.020752	0.000305	0.29404	-0.064545	-0.000916	0.034637
55.255	-0.005341	0.092621	0.003357	0.036316	0.026093	-0.008545	0.16052	0.022278	-0.17639	0.15625	0.004578	-0.023346	-0.02243	-0.18753	-0.014343	-0.00946	-0.00412	0.072174	-0.19058	-0.090637	-0.10651	-0.13947	-0.089722	-0.11368	-0.013885	-0.023346	-0.12116	-0.001526	0.041656	-0.026245	-0.00412	0.031433
55.256	-0.00946	0.12054	-0.030365	0.040894	0.033722	-0.031586	0.013275	0.019684	-0.10513	0.062714	0.001373	-0.008087	0.36621	-0.36118	-0.026093	0.028839	-0.076141	0.047607	-0.47928	-0.075073	-0.081787	-0.17242	-0.068665	-0.092621	-0.00061	-0.028076	-0.26047	-0.00351	0.19867	0.047913	-0.004425	0.01358
55.257	-0.013123	0.10056	-0.022125	0.030518	0.034943	-0.012054	-0.037689	0.017853	-0.011444	0.03418	-0.003815	-0.041656	0.30518	-0.31937	-0.028229	0.001373	-0.09079	0.054321	-0.23575	-0.072784	0.084991	-0.19333	-0.071716	-0.082092	-0.009308	-0.027313	-0.40375	-0.006409	0.026703	0.076599	-0.008087	0.003052
55.258	-0.013275	0.12421	0.1181	0.015869	0.035553	-0.012817	0.010529	0.003357	-0.014038	-0.056763	-0.007477	-0.037231	0.14465	0.12497	-0.021057	-0.007935	-0.073395	0.050812	-0.22293	-0.039063	0.11688	-0.16525	-0.038757	-0.068512	0.00351	-0.022583	-0.37933	0.000458	0.059509	-0.074158	-0.001984	0.00946
55.259	-0.003204	0.060883	0.024261	-0.005798	0.031433	0.00351	0.10849	-0.016632	-0.078125	-0.12924	-0.010071	-0.032349	-0.032654	0.14648	-0.032654	0.071869	-0.064087	0.064392	-0.26688	-0.012512	0.058899	-0.15366	-0.019684	-0.066376	0.005188	-0.024414	-0.10788	-0.00351	0.064087	-0.18234	-0.003967	0.004578
55.26	-0.014954	0.012512	-0.061951	0.003967	0.02243	0.000153	0.15717	-0.019073	-0.12772	-0.14618	-0.032654	-0.035858	0.14267	-0.1088	-0.027008	-0.1387	-0.011139	-0.009613	-0.30716	0.045929	0.081787	-0.16388	-0.037231	-0.074921	0.019073	-0.025787	0.20584	-0.00351	0.25253	-0.16403	0	-0.002441
55.261	-0.001068	-0.021057	-0.12634	-0.006409	0.019379	0.018921	0.22171	-0.008545	-0.12848	-0.10696	-0.012054	-0.037079	0.16068	-0.23193	-0.063171	0.081329	0.027924	-0.016632	-0.52948	0.01709	0.048828	-0.041504	-0.062103	-0.09079	0.018311	-0.041046	0.62622	-0.00061	0.19806	-0.15396	0.002289	-0.00824
